<svg xmlns="http://www.w3.org/2000/svg" xmlns:xlink="http://www.w3.org/1999/xlink" width="2000" zoomAndPan="magnify" viewBox="0 0 1500 1499.999933" height="2000" preserveAspectRatio="xMidYMid meet" version="1.0"><rect x="-150" width="1800" fill="#ffffff" y="-149.999993" height="1799.99992" fill-opacity="1"/><rect x="-150" width="1800" fill="#ffdd87" y="-149.999993" height="1799.99992" fill-opacity="1"/><path fill="#534741" d="M 1379.277344 747.527344 C 1378.125 744.5 1376.710938 741.398438 1374.789062 737.808594 C 1370.222656 729.167969 1365.167969 721.628906 1359.804688 715.476562 C 1353.621094 708.371094 1346.179688 703.859375 1338.226562 702.421875 C 1333.941406 701.628906 1329.480469 701.707031 1325.375 702.628906 C 1321.933594 703.398438 1318.523438 704.886719 1315.214844 707.0625 C 1308.210938 711.652344 1303.359375 719.140625 1301.949219 727.578125 C 1301.796875 728.5 1301.691406 729.449219 1301.617188 730.371094 C 1301.589844 730.679688 1301.5625 730.988281 1301.5625 731.269531 C 1301.511719 732.089844 1301.511719 732.910156 1301.539062 733.730469 C 1301.539062 733.886719 1301.539062 734.039062 1301.539062 734.191406 C 1301.5625 734.988281 1301.640625 735.78125 1301.742188 736.578125 C 1301.820312 737.117188 1301.898438 737.65625 1302 738.191406 C 1302.050781 738.476562 1302.101562 738.757812 1302.152344 739.039062 C 1302.332031 739.960938 1302.589844 740.886719 1302.871094 741.78125 C 1302.921875 741.960938 1302.976562 742.140625 1303.027344 742.296875 C 1303.308594 743.21875 1303.640625 744.117188 1304.027344 744.988281 L 1283.5 744.988281 C 1282.550781 744.886719 1281.601562 744.835938 1280.652344 744.835938 C 1279.449219 744.808594 1278.242188 744.886719 1277.035156 744.988281 L 1277.035156 744.398438 C 1277.035156 742.015625 1277.035156 739.550781 1276.90625 737.167969 C 1276.804688 735.140625 1276.726562 733.089844 1276.652344 731.066406 C 1276.496094 727.011719 1276.34375 722.832031 1275.984375 718.730469 L 1275.753906 715.527344 C 1275.394531 710.527344 1275.007812 705.347656 1274.445312 700.292969 L 1273.496094 691.039062 L 1272.339844 681.933594 C 1269.238281 657.859375 1264.4375 633.394531 1258.101562 609.265625 C 1245.503906 561.472656 1226.570312 515.496094 1201.757812 472.570312 C 1188.90625 450.546875 1174.742188 429.929688 1159.65625 411.289062 C 1143.183594 390.929688 1125.96875 372.722656 1108.496094 357.15625 C 1099.132812 348.824219 1089.460938 340.875 1079.710938 333.542969 C 1077.8125 332.105469 1075.914062 330.722656 1074.015625 329.3125 C 1081.941406 328.902344 1089.410156 324.796875 1094 317.796875 C 1101.722656 306.027344 1098.414062 290.183594 1086.636719 282.464844 C 1077.582031 276.539062 1067.445312 273.386719 1056.542969 273.128906 C 1051.257812 272.976562 1045.84375 273.59375 1040.300781 275.027344 C 1035.761719 276.335938 1030.886719 277.898438 1025.472656 281.128906 C 1019.339844 284.746094 1013.925781 289.925781 1010.257812 295.644531 C 1006.488281 301.386719 1003.921875 308.464844 1003.046875 315.59375 C 1002.382812 320.847656 1002.457031 326.027344 1003.253906 331.722656 C 1003.382812 332.773438 1003.535156 333.722656 1003.714844 334.671875 L 1003.816406 335.261719 C 1004.023438 336.414062 1004.253906 337.566406 1004.484375 338.542969 L 1005 340.722656 C 1005.023438 340.902344 1005.074219 341.082031 1005.203125 341.542969 L 1005.460938 342.386719 C 1005.820312 343.542969 1006.230469 344.671875 1006.691406 345.902344 C 1007.128906 347.003906 1007.617188 348.003906 1008.128906 349.003906 C 1008.511719 349.800781 1008.949219 350.566406 1009.410156 351.363281 C 1009.027344 352.03125 1008.640625 352.695312 1008.257812 353.335938 C 1004.769531 359.261719 1001.253906 365.210938 997.789062 371.160156 C 995.53125 369.414062 993.246094 367.695312 990.9375 366.003906 C 988.785156 364.441406 986.601562 362.902344 984.394531 361.390625 C 984.242188 361.285156 984.113281 361.183594 983.960938 361.082031 C 978.058594 357.054688 971.976562 353.285156 965.769531 349.722656 C 964.5625 349.03125 963.359375 348.3125 962.152344 347.644531 C 958.664062 345.722656 955.148438 343.875 951.582031 342.082031 C 950.8125 341.695312 950.042969 341.3125 949.273438 340.953125 C 945.859375 339.285156 942.421875 337.644531 938.933594 336.105469 C 938.574219 335.953125 938.214844 335.796875 937.855469 335.644531 C 936.519531 335.054688 935.160156 334.515625 933.828125 333.953125 C 932.46875 333.386719 931.105469 332.796875 929.746094 332.261719 C 927.695312 331.441406 925.640625 330.644531 923.5625 329.875 C 921.898438 329.261719 920.203125 328.671875 918.511719 328.054688 C 917.175781 327.59375 915.839844 327.105469 914.480469 326.644531 C 913.457031 326.285156 912.402344 325.976562 911.351562 325.644531 C 909.632812 325.105469 907.9375 324.542969 906.21875 324.027344 C 905.707031 323.875 905.167969 323.722656 904.65625 323.566406 C 902.601562 322.953125 900.523438 322.363281 898.445312 321.796875 C 897.597656 321.566406 896.726562 321.335938 895.878906 321.132812 C 895.597656 321.054688 895.316406 321.003906 895.058594 320.925781 C 892.621094 320.3125 890.183594 319.695312 887.722656 319.132812 C 886.542969 318.847656 885.359375 318.617188 884.15625 318.363281 C 882.640625 318.027344 881.152344 317.695312 879.640625 317.414062 C 876.972656 316.875 874.277344 316.386719 871.582031 315.925781 C 793.484375 302.722656 713.460938 322.15625 652.117188 369.285156 C 651.886719 369.464844 624.484375 390.492188 614.144531 398.441406 C 603.777344 390.492188 576.402344 369.464844 576.171875 369.261719 C 514.828125 322.15625 434.828125 302.695312 356.707031 315.925781 C 279.761719 328.953125 211.769531 372.773438 170.207031 436.160156 C 149.988281 466.75 136.289062 497.828125 129.363281 528.597656 C 120.867188 566.292969 120.203125 607.085938 127.4375 646.601562 C 141.035156 720.808594 184.316406 791.476562 252.667969 850.941406 C 256.671875 854.425781 260.75 857.886719 264.855469 861.351562 C 266.417969 862.683594 268.035156 863.992188 269.625 865.300781 C 272.191406 867.425781 274.730469 869.554688 277.324219 871.65625 C 279.351562 873.324219 281.453125 874.964844 283.507812 876.605469 C 283.507812 876.605469 283.507812 876.605469 283.53125 876.605469 C 285.714844 878.351562 287.894531 880.121094 290.101562 881.863281 C 292.203125 883.53125 294.359375 885.171875 296.515625 886.839844 C 298.722656 888.554688 300.925781 890.273438 303.160156 891.964844 C 305.828125 893.992188 308.523438 896.019531 311.214844 898.019531 C 312.960938 899.324219 314.707031 900.632812 316.476562 901.941406 C 317.324219 902.554688 318.167969 903.171875 319.015625 903.8125 C 322.660156 906.503906 326.328125 909.171875 330.074219 911.839844 C 333.230469 914.09375 336.4375 916.351562 339.667969 918.609375 C 339.667969 918.609375 339.667969 918.609375 339.695312 918.609375 C 342.621094 920.660156 345.597656 922.710938 348.570312 924.761719 C 350.472656 926.070312 352.371094 927.378906 354.292969 928.683594 C 355.550781 929.53125 356.808594 930.402344 358.089844 931.25 C 359.375 932.121094 360.707031 932.992188 362.015625 933.863281 C 365.480469 936.199219 368.96875 938.507812 372.484375 940.8125 C 373.664062 941.582031 374.84375 942.328125 376.023438 943.097656 C 379.695312 945.480469 383.386719 947.863281 387.109375 950.25 C 391.238281 952.890625 395.421875 955.507812 399.628906 958.121094 C 407.503906 963.019531 415.535156 967.867188 423.667969 972.6875 C 426.132812 974.148438 428.59375 975.636719 431.085938 977.097656 C 431.546875 977.378906 432.007812 977.636719 432.46875 977.917969 C 435.421875 979.636719 438.421875 981.351562 441.398438 983.070312 C 447.582031 986.636719 453.839844 990.175781 460.152344 993.6875 C 461.257812 994.300781 462.359375 994.917969 463.460938 995.53125 C 463.617188 995.609375 463.769531 995.710938 463.925781 995.789062 C 463.925781 995.789062 463.925781 995.789062 463.949219 995.789062 C 469.261719 998.738281 474.625 1001.660156 480.035156 1004.558594 L 480.035156 1119.050781 C 461.179688 1119.304688 431.316406 1116.304688 405.734375 1111.460938 C 394.113281 1109.253906 382.3125 1112.433594 373.355469 1120.175781 L 328.125 1159.304688 C 320.351562 1166.023438 315.65625 1175.382812 314.910156 1185.640625 C 314.167969 1195.898438 317.476562 1205.820312 324.199219 1213.589844 C 331.511719 1222.027344 342.132812 1226.871094 353.320312 1226.871094 C 362.554688 1226.871094 371.507812 1223.539062 378.488281 1217.488281 L 410.046875 1190.179688 C 422.359375 1192.023438 434.1875 1193.460938 445.273438 1194.460938 C 493.328125 1198.742188 521.371094 1194.332031 539.046875 1179.691406 C 550.617188 1170.101562 556.980469 1156.714844 556.980469 1142 L 556.980469 1042.714844 C 557.390625 1042.894531 557.800781 1043.074219 558.214844 1043.253906 C 561.496094 1044.6875 564.730469 1046.097656 567.960938 1047.457031 C 568.476562 1047.664062 568.964844 1047.894531 569.476562 1048.097656 C 573.351562 1049.714844 577.171875 1051.304688 580.996094 1052.816406 C 581.507812 1053.023438 582.023438 1053.226562 582.511719 1053.433594 C 586.050781 1054.84375 589.589844 1056.226562 593.105469 1057.558594 C 599.828125 1060.097656 606.859375 1061.378906 613.914062 1061.378906 C 620.96875 1061.378906 628.023438 1060.097656 634.722656 1057.558594 C 638.289062 1056.203125 641.878906 1054.789062 645.496094 1053.355469 C 647.855469 1052.40625 650.242188 1051.433594 652.628906 1050.457031 C 652.628906 1050.457031 652.65625 1050.457031 652.65625 1050.457031 C 660.507812 1047.226562 668.433594 1043.816406 676.566406 1040.148438 C 677.492188 1040.738281 678.441406 1041.304688 679.414062 1041.816406 C 679.492188 1041.84375 679.542969 1041.894531 679.621094 1041.917969 C 680.183594 1042.226562 680.800781 1042.484375 681.390625 1042.765625 C 682.160156 1043.125 682.929688 1043.429688 683.699219 1043.738281 C 684.339844 1043.996094 684.957031 1044.253906 685.625 1044.457031 C 686.777344 1044.84375 687.933594 1045.148438 689.140625 1045.433594 C 697.144531 1047.199219 705.480469 1049.304688 713.921875 1051.6875 C 716.105469 1052.304688 718.257812 1052.945312 720.414062 1053.585938 C 720.722656 1053.6875 721.03125 1053.765625 721.339844 1053.867188 C 723.417969 1054.484375 725.46875 1055.125 727.519531 1055.765625 C 727.519531 1055.765625 727.546875 1055.765625 727.546875 1055.765625 C 730.265625 1056.613281 732.933594 1057.484375 735.578125 1058.378906 C 737.578125 1059.046875 739.527344 1059.738281 741.480469 1060.40625 C 743.453125 1061.097656 745.429688 1061.816406 747.328125 1062.507812 C 748.609375 1062.996094 749.867188 1063.457031 751.125 1063.945312 C 751.253906 1063.996094 751.355469 1064.023438 751.484375 1064.074219 C 752.742188 1064.558594 754 1065.046875 755.203125 1065.535156 C 755.257812 1065.558594 755.308594 1065.585938 755.359375 1065.585938 C 757.898438 1066.613281 760.3125 1067.613281 762.59375 1068.613281 C 763.75 1069.125 764.878906 1069.613281 765.953125 1070.125 C 765.953125 1070.125 765.980469 1070.125 765.980469 1070.125 C 767.058594 1070.613281 768.109375 1071.125 769.109375 1071.613281 C 770.164062 1072.125 771.164062 1072.636719 772.136719 1073.125 C 772.804688 1073.457031 773.445312 1073.816406 774.089844 1074.148438 C 774.804688 1074.535156 775.5 1074.917969 776.140625 1075.304688 C 776.960938 1075.765625 777.730469 1076.226562 778.425781 1076.6875 C 774.832031 1098.972656 762.003906 1143.355469 751.074219 1175.871094 C 747.148438 1187.589844 749.097656 1200.5625 756.308594 1210.589844 C 763.519531 1220.617188 775.21875 1226.589844 787.558594 1226.589844 L 847.363281 1226.589844 C 868.582031 1226.589844 885.847656 1209.332031 885.847656 1188.128906 C 885.847656 1166.921875 868.582031 1149.664062 847.363281 1149.664062 L 839.820312 1149.664062 C 850.777344 1111.484375 856.316406 1084.046875 856.316406 1067.996094 C 856.316406 1066.355469 856.214844 1064.765625 856.085938 1063.175781 C 856.085938 1063.074219 856.0625 1062.96875 856.0625 1062.84375 C 855.984375 1061.996094 855.90625 1061.175781 855.804688 1060.355469 C 855.804688 1060.277344 855.777344 1060.199219 855.777344 1060.148438 C 855.625 1058.996094 855.417969 1057.84375 855.1875 1056.714844 C 855.136719 1056.507812 855.085938 1056.304688 855.035156 1056.097656 C 854.726562 1054.636719 854.316406 1053.199219 853.90625 1051.789062 C 853.878906 1051.738281 853.878906 1051.6875 853.855469 1051.636719 C 853.289062 1049.816406 852.648438 1048.046875 851.90625 1046.304688 C 851.699219 1045.84375 851.46875 1045.378906 851.261719 1044.917969 C 851.007812 1044.355469 850.726562 1043.765625 850.441406 1043.199219 C 850.1875 1042.714844 849.929688 1042.226562 849.648438 1041.738281 C 849.339844 1041.175781 849.058594 1040.636719 848.722656 1040.097656 C 848.441406 1039.609375 848.132812 1039.148438 847.851562 1038.660156 C 847.515625 1038.125 847.183594 1037.585938 846.851562 1037.074219 C 846.824219 1037.019531 846.800781 1036.996094 846.773438 1036.945312 C 845.257812 1034.6875 843.566406 1032.507812 841.769531 1030.40625 C 841.640625 1030.277344 841.539062 1030.125 841.410156 1029.996094 C 841 1029.535156 840.589844 1029.046875 840.152344 1028.585938 C 839.742188 1028.148438 839.332031 1027.714844 838.921875 1027.304688 C 838.230469 1026.585938 837.535156 1025.894531 836.820312 1025.199219 C 836.640625 1025.046875 836.484375 1024.867188 836.304688 1024.714844 C 835.84375 1024.277344 835.382812 1023.839844 834.894531 1023.40625 C 834.6875 1023.226562 834.484375 1023.046875 834.277344 1022.867188 C 833.40625 1022.070312 832.507812 1021.304688 831.585938 1020.558594 C 831.25 1020.300781 830.941406 1020.019531 830.609375 1019.765625 C 830.121094 1019.355469 829.609375 1018.96875 829.097656 1018.558594 C 828.738281 1018.277344 828.351562 1017.996094 827.96875 1017.714844 C 827.324219 1017.226562 826.683594 1016.738281 826.015625 1016.25 C 825.503906 1015.867188 824.964844 1015.507812 824.453125 1015.125 C 823.9375 1014.765625 823.398438 1014.40625 822.863281 1014.019531 C 822.65625 1013.890625 822.476562 1013.765625 822.269531 1013.636719 C 821.398438 1013.046875 820.5 1012.457031 819.601562 1011.890625 C 819.039062 1011.535156 818.472656 1011.175781 817.882812 1010.816406 C 817.34375 1010.480469 816.804688 1010.148438 816.242188 1009.816406 C 815.652344 1009.457031 815.0625 1009.097656 814.472656 1008.765625 C 813.933594 1008.457031 813.394531 1008.148438 812.828125 1007.816406 C 812.496094 1007.636719 812.164062 1007.457031 811.828125 1007.25 C 809.851562 1006.148438 807.828125 1005.070312 805.773438 1004.019531 C 805.132812 1003.6875 804.464844 1003.355469 803.824219 1003.046875 C 803.285156 1002.789062 802.746094 1002.507812 802.207031 1002.25 C 801.71875 1002.019531 801.234375 1001.789062 800.769531 1001.558594 C 800.050781 1001.226562 799.335938 1000.867188 798.617188 1000.53125 C 797.898438 1000.199219 797.203125 999.867188 796.484375 999.558594 C 794.765625 998.789062 793.046875 998.019531 791.328125 997.277344 C 790.558594 996.941406 789.816406 996.609375 789.046875 996.300781 C 788.609375 996.121094 788.148438 995.941406 787.710938 995.761719 C 787.710938 995.761719 787.710938 995.761719 787.6875 995.761719 C 786.96875 995.480469 786.273438 995.175781 785.554688 994.890625 C 783.402344 994.019531 781.273438 993.171875 779.117188 992.351562 C 778.65625 992.171875 778.191406 991.996094 777.730469 991.816406 C 776.472656 991.351562 775.21875 990.867188 773.984375 990.40625 C 773.984375 990.40625 774.011719 990.40625 774.011719 990.378906 C 774.011719 990.378906 774.011719 990.378906 774.035156 990.378906 C 780.117188 986.941406 786.144531 983.507812 792.097656 980.019531 C 793.046875 979.480469 793.972656 978.917969 794.894531 978.378906 C 800.71875 974.96875 806.492188 971.558594 812.214844 968.121094 C 815.242188 966.300781 818.242188 964.480469 821.246094 962.632812 C 822.679688 961.761719 824.117188 960.867188 825.554688 959.992188 C 832.738281 955.558594 839.847656 951.070312 846.824219 946.582031 C 849.03125 945.148438 851.238281 943.738281 853.445312 942.300781 C 856.34375 940.402344 859.191406 938.503906 862.066406 936.609375 C 863.785156 935.453125 865.527344 934.324219 867.246094 933.171875 C 871.890625 930.070312 876.484375 926.941406 881.023438 923.8125 C 881.023438 923.8125 881.023438 923.8125 881.023438 923.839844 C 884.410156 929.789062 887.902344 935.738281 891.414062 941.660156 C 892.46875 943.429688 893.546875 945.222656 894.621094 946.992188 C 897.238281 951.351562 899.882812 955.738281 902.578125 960.097656 C 903.652344 961.839844 904.730469 963.609375 905.808594 965.351562 C 909.425781 971.171875 913.070312 976.96875 916.765625 982.789062 C 917.074219 983.277344 917.40625 983.761719 917.714844 984.25 C 921.175781 989.660156 924.640625 995.046875 928.15625 1000.429688 C 929.4375 1002.378906 930.722656 1004.351562 932.003906 1006.300781 C 934.699219 1010.40625 937.390625 1014.480469 940.085938 1018.585938 C 941.34375 1020.480469 942.601562 1022.40625 943.882812 1024.300781 C 947.578125 1029.839844 951.273438 1035.355469 954.96875 1040.867188 C 955.222656 1041.226562 955.453125 1041.609375 955.710938 1041.96875 C 959.816406 1048.046875 963.921875 1054.125 968.050781 1060.175781 C 972.515625 1066.738281 976.980469 1073.304688 981.417969 1079.816406 C 988.320312 1089.945312 995.375 1100.277344 1002.355469 1110.585938 C 1001.867188 1111.152344 1001.378906 1111.714844 1000.867188 1112.304688 C 993.734375 1121.046875 988.988281 1131.332031 987.167969 1141.996094 C 984.960938 1154.410156 986.910156 1167.125 992.578125 1177.769531 C 998.148438 1188.511719 1007.769531 1197.511719 1018.980469 1202.410156 C 1027.011719 1205.949219 1035.632812 1207.71875 1044.714844 1207.71875 C 1046.101562 1207.71875 1047.484375 1207.667969 1048.871094 1207.589844 C 1057.902344 1207.128906 1067.136719 1204.792969 1075.554688 1200.871094 C 1084.226562 1196.820312 1091.769531 1191.253906 1097.902344 1184.332031 C 1106.085938 1175.128906 1106.546875 1161.382812 1099.003906 1151.664062 C 1094.820312 1146.253906 1088.765625 1142.792969 1081.96875 1141.921875 C 1075.167969 1141.050781 1068.445312 1142.894531 1063.035156 1147.074219 L 1061.546875 1148.230469 C 1059.800781 1149.5625 1057.59375 1150.691406 1055.335938 1151.355469 C 1053.179688 1152 1051.128906 1152.230469 1049.050781 1152.101562 L 1051.128906 1150.511719 C 1052.976562 1149.074219 1054.898438 1147.640625 1056.824219 1146.230469 L 1057.335938 1145.84375 C 1060.75 1143.355469 1064.265625 1140.894531 1067.855469 1138.382812 L 1070.703125 1136.40625 C 1073.191406 1134.664062 1075.757812 1132.921875 1078.324219 1131.125 C 1085.304688 1126.304688 1092.511719 1121.355469 1099.800781 1115.921875 C 1105.035156 1112.046875 1110.140625 1107.996094 1114.910156 1103.945312 C 1116.835938 1102.355469 1118.527344 1100.816406 1120.144531 1099.355469 C 1120.785156 1098.765625 1121.453125 1098.152344 1122.171875 1097.507812 L 1135.898438 1084.894531 C 1137.386719 1083.457031 1138.824219 1081.972656 1140.261719 1080.484375 C 1141.003906 1079.714844 1141.722656 1078.972656 1142.519531 1078.175781 C 1143.929688 1076.714844 1145.367188 1075.226562 1146.800781 1073.765625 C 1149.703125 1070.792969 1152.601562 1067.84375 1155.578125 1064.636719 L 1159.683594 1059.945312 C 1166.402344 1052.277344 1173.355469 1044.328125 1179.539062 1036.019531 C 1181.875 1033.019531 1184.160156 1029.96875 1186.441406 1026.917969 C 1187.109375 1026.019531 1187.75 1025.125 1188.417969 1024.226562 C 1189.085938 1023.328125 1189.726562 1022.40625 1190.367188 1021.480469 C 1197.0625 1012.148438 1203.425781 1002.585938 1209.378906 992.789062 C 1210.945312 990.226562 1212.484375 987.660156 1213.996094 985.070312 C 1214.433594 984.328125 1214.871094 983.582031 1215.304688 982.839844 C 1219.207031 976.070312 1222.925781 969.222656 1226.464844 962.277344 C 1226.464844 962.25 1226.492188 962.222656 1226.492188 962.222656 C 1226.800781 961.632812 1227.082031 961.046875 1227.390625 960.429688 C 1228.929688 957.351562 1230.441406 954.277344 1231.929688 951.171875 C 1232.164062 950.6875 1232.417969 950.171875 1232.648438 949.6875 C 1232.648438 949.660156 1232.675781 949.632812 1232.675781 949.609375 C 1236.085938 942.378906 1239.320312 935.070312 1242.347656 927.710938 C 1242.375 927.683594 1242.375 927.660156 1242.398438 927.609375 C 1242.527344 927.273438 1242.65625 926.96875 1242.785156 926.632812 C 1244.222656 923.09375 1245.632812 919.53125 1246.992188 915.96875 C 1247.070312 915.761719 1247.144531 915.53125 1247.25 915.324219 C 1247.273438 915.273438 1247.300781 915.199219 1247.300781 915.144531 C 1250.222656 907.375 1252.945312 899.554688 1255.457031 891.660156 C 1256.5625 888.144531 1257.640625 884.632812 1258.664062 881.09375 C 1259 879.964844 1259.308594 878.8125 1259.640625 877.683594 C 1260.382812 875.070312 1261.101562 872.453125 1261.796875 869.8125 C 1262.078125 868.710938 1262.386719 867.582031 1262.667969 866.476562 C 1263.589844 862.835938 1264.488281 859.222656 1265.335938 855.554688 C 1265.953125 855.503906 1266.621094 855.425781 1267.285156 855.324219 C 1267.570312 855.296875 1267.875 855.246094 1268.160156 855.195312 C 1268.542969 855.144531 1268.902344 855.09375 1269.289062 855.015625 C 1269.699219 854.941406 1270.109375 854.886719 1270.542969 854.8125 C 1271.136719 854.707031 1271.726562 854.582031 1272.339844 854.425781 C 1272.390625 854.425781 1272.441406 854.402344 1272.496094 854.402344 C 1272.800781 854.324219 1273.136719 854.246094 1273.46875 854.144531 C 1273.46875 854.144531 1273.46875 854.144531 1273.496094 854.144531 C 1273.804688 854.066406 1274.109375 853.992188 1274.417969 853.914062 C 1276.472656 853.324219 1278.550781 852.554688 1280.578125 851.53125 C 1288.632812 847.375 1293.636719 838.425781 1293.019531 829.273438 C 1292.839844 826.503906 1292.148438 823.9375 1291.019531 821.632812 C 1297.332031 818.425781 1302.332031 812.578125 1303.949219 805.527344 C 1305.746094 797.628906 1303.050781 789.296875 1297.636719 783.503906 C 1299.511719 781.757812 1301.101562 779.707031 1302.308594 777.449219 C 1302.539062 778.375 1302.796875 779.296875 1303.101562 780.195312 C 1303.769531 782.167969 1304.640625 784.066406 1305.667969 785.859375 C 1305.824219 786.117188 1306.003906 786.375 1306.15625 786.65625 C 1306.644531 787.449219 1307.15625 788.21875 1307.722656 788.9375 C 1308.003906 789.324219 1308.285156 789.707031 1308.59375 790.09375 C 1308.851562 790.398438 1309.132812 790.683594 1309.390625 790.988281 C 1309.621094 791.246094 1309.851562 791.476562 1310.082031 791.734375 C 1310.699219 792.375 1311.339844 792.964844 1312.007812 793.554688 C 1312.261719 793.785156 1312.492188 794.015625 1312.75 794.21875 C 1313.519531 794.863281 1314.316406 795.449219 1315.160156 795.988281 C 1318.472656 798.144531 1321.882812 799.65625 1325.320312 800.425781 C 1327.554688 800.9375 1329.886719 801.167969 1332.25 801.167969 C 1334.222656 801.167969 1336.226562 800.988281 1338.175781 800.628906 C 1346.105469 799.167969 1353.570312 794.65625 1359.753906 787.578125 C 1365.140625 781.398438 1370.167969 773.886719 1374.738281 765.246094 C 1376.636719 761.628906 1378.070312 758.527344 1379.226562 755.5 C 1380.226562 752.859375 1380.226562 750.066406 1379.277344 747.527344 Z M 1190.367188 759.425781 C 1190.265625 759.449219 1190.1875 759.476562 1190.085938 759.5 C 1189.519531 759.679688 1188.957031 759.808594 1188.390625 759.964844 C 1187.339844 760.269531 1186.289062 760.578125 1185.210938 760.859375 C 1182.492188 761.066406 1179.796875 761.21875 1177.105469 761.375 C 1176.460938 761.398438 1175.796875 761.449219 1175.152344 761.5 C 1174.921875 761.5 1174.691406 761.527344 1174.460938 761.527344 C 1167.765625 761.835938 1161.144531 761.964844 1154.578125 761.910156 C 1154.527344 761.910156 1154.472656 761.910156 1154.421875 761.910156 C 1154.167969 761.910156 1153.910156 761.910156 1153.652344 761.910156 C 1150.675781 761.886719 1147.699219 761.808594 1144.75 761.707031 C 1144.3125 761.679688 1143.878906 761.679688 1143.441406 761.65625 C 1137.105469 761.398438 1130.769531 760.988281 1124.457031 760.398438 C 1124.457031 760.398438 1124.429688 760.398438 1124.429688 760.398438 C 1123.789062 760.347656 1123.171875 760.269531 1122.53125 760.21875 C 1119.992188 759.964844 1117.453125 759.707031 1114.9375 759.398438 C 1114.269531 759.320312 1113.578125 759.246094 1112.910156 759.167969 C 1109.804688 758.785156 1106.703125 758.375 1103.570312 757.910156 L 1195.191406 757.910156 C 1193.625 758.425781 1192.011719 758.9375 1190.367188 759.425781 Z M 1017.929688 362.132812 C 1019.03125 363.183594 1020.085938 364.132812 1021.058594 364.980469 C 1024.113281 367.542969 1026.832031 369.492188 1028.988281 371.054688 L 1030.140625 371.875 C 1031.195312 372.621094 1032.015625 373.234375 1032.527344 373.621094 L 1035.066406 375.75 C 1037.121094 377.464844 1039.148438 379.210938 1041.175781 380.980469 C 1049.050781 387.902344 1056.875 395.339844 1064.417969 403.132812 C 1079.96875 419.261719 1093.820312 435.851562 1105.574219 452.441406 C 1111.449219 460.648438 1117.246094 469.417969 1123.300781 479.265625 C 1128.996094 488.519531 1134.359375 497.90625 1139.207031 507.214844 C 1159.09375 545.292969 1174.28125 585.882812 1184.363281 627.882812 C 1189.238281 648.292969 1193.035156 669.679688 1195.628906 691.449219 L 1196.550781 699.398438 L 1197.269531 707.628906 C 1197.707031 711.859375 1197.960938 716.242188 1198.21875 720.476562 L 1198.425781 723.757812 C 1198.679688 727.140625 1198.785156 730.527344 1198.910156 734.089844 C 1198.988281 736.015625 1199.039062 737.960938 1199.144531 739.960938 C 1199.195312 740.835938 1199.21875 741.679688 1199.21875 742.578125 C 1199.21875 743.371094 1199.21875 744.195312 1199.21875 745.039062 C 1199.21875 745.039062 1199.21875 745.066406 1199.21875 745.066406 L 1063.90625 745.066406 C 1066.136719 741.140625 1068.292969 737.191406 1070.371094 733.246094 C 1072.425781 729.296875 1074.398438 725.320312 1076.273438 721.320312 C 1080.042969 713.347656 1083.429688 705.269531 1086.484375 697.140625 C 1086.484375 697.117188 1086.511719 697.089844 1086.511719 697.089844 C 1089.742188 688.449219 1092.539062 679.757812 1094.949219 670.988281 C 1095.363281 669.472656 1095.71875 667.960938 1096.105469 666.449219 C 1096.796875 663.808594 1097.492188 661.140625 1098.082031 658.5 C 1098.980469 654.574219 1099.800781 650.625 1100.519531 646.652344 C 1107.753906 607.140625 1107.085938 566.34375 1098.59375 528.648438 C 1091.667969 497.878906 1077.964844 466.777344 1057.929688 436.238281 C 1056.363281 433.828125 1054.722656 431.46875 1053.078125 429.132812 C 1051.796875 427.339844 1050.488281 425.542969 1049.179688 423.773438 C 1048.691406 423.109375 1048.230469 422.46875 1047.742188 421.800781 C 1047.304688 421.238281 1046.894531 420.671875 1046.460938 420.109375 C 1046.433594 420.082031 1046.433594 420.082031 1046.410156 420.058594 C 1042.535156 415.003906 1038.480469 410.132812 1034.246094 405.390625 C 1032.476562 403.390625 1030.679688 401.441406 1028.859375 399.492188 C 1028.652344 399.289062 1028.449219 399.054688 1028.242188 398.824219 C 1023.316406 393.644531 1018.160156 388.699219 1012.847656 383.929688 C 1011.183594 382.441406 1009.515625 380.929688 1007.820312 379.492188 C 1011.15625 373.644531 1014.542969 367.875 1017.929688 362.132812 Z M 992.09375 1072.535156 C 988.117188 1066.714844 984.140625 1060.867188 980.164062 1055.023438 C 979.675781 1054.304688 979.1875 1053.585938 978.675781 1052.84375 C 974.570312 1046.789062 970.464844 1040.738281 966.359375 1034.664062 C 966.078125 1034.253906 965.820312 1033.839844 965.539062 1033.429688 C 965.539062 1033.40625 965.511719 1033.40625 965.511719 1033.378906 C 961.742188 1027.765625 957.96875 1022.148438 954.199219 1016.507812 C 953.144531 1014.917969 952.070312 1013.328125 951.015625 1011.714844 C 948.039062 1007.226562 945.089844 1002.738281 942.140625 998.25 C 941.0625 996.585938 939.957031 994.945312 938.882812 993.277344 C 935.03125 987.378906 931.234375 981.480469 927.464844 975.582031 C 927.4375 975.53125 927.414062 975.507812 927.386719 975.457031 C 923.617188 969.558594 919.921875 963.636719 916.253906 957.710938 C 915.226562 956.070312 914.226562 954.402344 913.199219 952.761719 C 910.480469 948.328125 907.785156 943.890625 905.117188 939.429688 C 904.066406 937.6875 903.011719 935.917969 901.988281 934.171875 C 898.472656 928.222656 894.984375 922.300781 891.621094 916.351562 C 891.621094 916.351562 891.621094 916.351562 891.621094 916.324219 C 894.058594 914.609375 896.472656 912.863281 898.882812 911.121094 C 899.804688 910.453125 900.730469 909.8125 901.628906 909.144531 C 902.371094 908.609375 903.140625 908.042969 903.886719 907.503906 C 907.015625 905.222656 910.144531 902.941406 913.226562 900.660156 C 921.253906 894.710938 929.105469 888.710938 936.777344 882.683594 C 938.292969 881.503906 939.78125 880.300781 941.292969 879.121094 C 943.371094 877.480469 945.421875 875.839844 947.476562 874.171875 C 949.222656 872.761719 950.941406 871.375 952.660156 869.964844 C 955.148438 867.941406 957.609375 865.890625 960.046875 863.863281 C 961.382812 862.761719 962.714844 861.65625 964.023438 860.554688 C 967.796875 857.375 971.542969 854.171875 975.238281 850.964844 C 983.960938 843.375 992.222656 835.605469 1000.097656 827.65625 C 1000.738281 827.015625 1001.382812 826.375 1002.023438 825.734375 C 1002.535156 825.222656 1003.023438 824.707031 1003.511719 824.195312 C 1006.152344 821.476562 1008.796875 818.734375 1011.335938 815.964844 C 1014.082031 816.757812 1016.878906 817.554688 1019.675781 818.347656 C 1024.574219 819.734375 1029.578125 821.042969 1034.605469 822.347656 C 1037.273438 823.042969 1039.996094 823.707031 1042.6875 824.347656 C 1042.84375 824.375 1042.996094 824.425781 1043.148438 824.453125 C 1044.664062 824.8125 1046.203125 825.167969 1047.742188 825.527344 C 1049.589844 825.964844 1051.4375 826.402344 1053.285156 826.8125 C 1057.234375 827.683594 1061.261719 828.527344 1065.292969 829.324219 C 1066.011719 829.453125 1066.703125 829.605469 1067.421875 829.734375 C 1069.523438 830.144531 1071.628906 830.554688 1073.734375 830.9375 C 1075.324219 831.222656 1076.941406 831.527344 1078.554688 831.8125 C 1081.402344 832.296875 1084.253906 832.761719 1087.152344 833.222656 C 1088.410156 833.425781 1089.664062 833.605469 1090.921875 833.8125 C 1090.921875 833.8125 1090.949219 833.8125 1090.949219 833.8125 C 1094.179688 834.296875 1097.464844 834.734375 1100.75 835.144531 C 1101.160156 835.195312 1101.542969 835.246094 1101.957031 835.296875 C 1110.679688 836.375 1119.554688 837.246094 1128.585938 837.835938 C 1129.023438 837.863281 1129.484375 837.886719 1129.945312 837.914062 C 1133.691406 838.144531 1137.464844 838.324219 1141.261719 838.476562 C 1141.570312 838.476562 1141.902344 838.503906 1142.210938 838.503906 C 1147.238281 838.683594 1152.292969 838.785156 1157.425781 838.785156 C 1160.734375 838.785156 1164.042969 838.734375 1167.355469 838.65625 C 1168.738281 838.632812 1170.152344 838.582031 1171.535156 838.527344 C 1173.230469 838.476562 1174.921875 838.402344 1176.617188 838.324219 C 1180.925781 838.144531 1185.261719 837.886719 1189.574219 837.582031 C 1188.75 841.324219 1187.929688 844.992188 1187.03125 848.582031 C 1186.570312 850.503906 1186.058594 852.375 1185.542969 854.273438 C 1185.132812 855.863281 1184.722656 857.503906 1184.289062 859.09375 C 1184.234375 859.246094 1184.210938 859.402344 1184.160156 859.554688 C 1183.339844 862.53125 1182.492188 865.453125 1181.59375 868.324219 C 1181.386719 869.015625 1181.15625 869.734375 1180.953125 870.425781 C 1180.003906 873.480469 1179.027344 876.503906 1178 879.480469 L 1175.589844 886.914062 C 1175.027344 888.453125 1174.433594 889.964844 1173.84375 891.480469 C 1173.484375 892.429688 1173.101562 893.375 1172.769531 894.25 C 1171.996094 896.199219 1171.253906 898.171875 1170.511719 900.144531 C 1169.355469 903.25 1168.253906 906.199219 1167.046875 909.019531 L 1158.988281 927.273438 L 1149.957031 945.199219 C 1149.292969 946.558594 1148.523438 947.890625 1147.699219 949.328125 C 1147.1875 950.199219 1146.675781 951.097656 1146.265625 951.867188 C 1145.210938 953.6875 1144.1875 955.507812 1143.160156 957.328125 C 1141.570312 960.121094 1140.003906 962.917969 1138.386719 965.6875 C 1136.769531 968.171875 1135.15625 970.710938 1133.5625 973.226562 C 1129.535156 979.558594 1125.378906 986.121094 1120.890625 992.148438 C 1120.8125 992.226562 1120.761719 992.328125 1120.710938 992.40625 C 1116.476562 998.710938 1111.832031 1004.558594 1106.90625 1010.765625 C 1105.058594 1013.097656 1103.1875 1015.429688 1101.519531 1017.609375 C 1099.390625 1020.148438 1097.183594 1022.636719 1095.003906 1025.125 C 1093.640625 1026.664062 1092.308594 1028.199219 1091.027344 1029.6875 C 1090.359375 1030.457031 1089.691406 1031.226562 1089.023438 1031.96875 C 1087.945312 1033.199219 1086.867188 1034.457031 1085.867188 1035.535156 L 1074.554688 1047.148438 C 1073.964844 1047.765625 1073.375 1048.378906 1072.757812 1048.996094 C 1071.550781 1050.253906 1070.347656 1051.535156 1069.089844 1052.6875 C 1065.523438 1056.125 1061.699219 1059.558594 1057.699219 1062.917969 C 1051.308594 1068.328125 1044.5625 1073.765625 1037.402344 1079.484375 L 1031.476562 1084.253906 C 1026.320312 1088.40625 1021.699219 1092.277344 1017.3125 1096.101562 C 1015.390625 1097.792969 1013.464844 1099.511719 1011.542969 1101.253906 C 1005.125 1091.6875 998.558594 1082.023438 992.09375 1072.535156 Z M 1304.027344 757.886719 C 1303.875 758.269531 1303.695312 758.65625 1303.566406 759.039062 C 1303.410156 758.65625 1303.230469 758.269531 1303.050781 757.886719 Z M 1304.027344 757.886719 " fill-opacity="1" fill-rule="nonzero"/><path fill="#b2b98a" d="M 1264.183594 745.066406 L 1261.257812 745.066406 C 1259.667969 744.246094 1257.949219 743.578125 1256.175781 743.117188 C 1247.53125 740.835938 1238.832031 742.78125 1231.46875 744.960938 C 1231.367188 744.988281 1231.265625 745.039062 1231.160156 745.066406 L 1212.023438 745.066406 C 1212.046875 743.195312 1212.046875 741.269531 1211.917969 739.296875 C 1211.84375 737.425781 1211.765625 735.527344 1211.714844 733.65625 C 1211.585938 730.117188 1211.484375 726.449219 1211.203125 722.886719 L 1211.023438 719.730469 C 1210.765625 715.371094 1210.484375 710.832031 1210.046875 706.421875 L 1209.300781 698.117188 L 1208.351562 689.988281 C 1205.683594 667.703125 1201.8125 645.804688 1196.808594 624.933594 C 1186.46875 581.90625 1170.894531 540.316406 1150.546875 501.339844 C 1145.546875 491.777344 1140.054688 482.085938 1134.207031 472.597656 C 1127.972656 462.492188 1122.019531 453.46875 1115.988281 445.058594 C 1103.878906 427.980469 1089.613281 410.902344 1073.628906 394.289062 C 1065.855469 386.234375 1057.773438 378.542969 1049.617188 371.390625 C 1047.539062 369.570312 1045.433594 367.75 1043.304688 365.980469 L 1040.636719 363.722656 C 1039.867188 363.105469 1038.839844 362.335938 1037.609375 361.464844 L 1036.453125 360.644531 C 1034.351562 359.132812 1031.988281 357.441406 1029.371094 355.234375 C 1027.832031 353.902344 1026.191406 352.441406 1024.34375 350.335938 C 1023.703125 349.644531 1022.855469 348.59375 1021.878906 347.234375 C 1021.46875 346.671875 1021.058594 346.003906 1020.648438 345.3125 C 1020.289062 344.746094 1019.957031 344.132812 1019.570312 343.386719 C 1019.1875 342.621094 1018.828125 341.902344 1018.546875 341.183594 C 1018.210938 340.3125 1017.902344 339.414062 1017.648438 338.59375 L 1017.46875 338.054688 C 1017.46875 338.03125 1017.417969 337.851562 1017.417969 337.796875 L 1016.902344 335.59375 C 1016.699219 334.773438 1016.542969 333.902344 1016.390625 333.003906 L 1016.289062 332.386719 C 1016.160156 331.695312 1016.03125 331.027344 1015.929688 330.105469 C 1015.285156 325.414062 1015.210938 321.3125 1015.75 317.183594 C 1016.390625 311.953125 1018.238281 306.796875 1020.980469 302.617188 C 1023.625 298.515625 1027.523438 294.796875 1032.015625 292.15625 C 1036.121094 289.695312 1039.941406 288.488281 1043.636719 287.414062 C 1047.84375 286.335938 1052.050781 285.847656 1056.15625 285.976562 C 1064.675781 286.183594 1072.550781 288.617188 1079.554688 293.234375 C 1082.40625 295.078125 1084.328125 297.953125 1085.019531 301.257812 C 1085.714844 304.566406 1085.074219 307.976562 1083.199219 310.796875 C 1079.941406 315.773438 1073.785156 317.796875 1068.214844 315.773438 L 1065.085938 314.617188 C 1062.160156 313.542969 1058.59375 313.183594 1055.796875 313.644531 C 1054.644531 313.796875 1053.515625 314.082031 1052.308594 314.515625 C 1051.101562 314.644531 1049.5625 315.132812 1048.179688 316.59375 C 1046.871094 317.464844 1045.742188 318.617188 1045.175781 320.386719 C 1044.328125 323.082031 1045.28125 326.183594 1047.664062 327.796875 C 1047.871094 327.925781 1048.074219 328.054688 1048.28125 328.15625 L 1048.539062 328.925781 C 1049.539062 332.105469 1052.847656 334.03125 1056.132812 333.285156 C 1056.335938 333.234375 1056.566406 333.183594 1056.773438 333.105469 C 1057.851562 333.773438 1059.082031 334.542969 1060.367188 335.363281 L 1064.648438 338.414062 C 1067.085938 340.183594 1069.523438 341.953125 1071.9375 343.773438 C 1081.402344 350.902344 1090.820312 358.644531 1099.929688 366.75 C 1116.886719 381.824219 1133.617188 399.519531 1149.652344 419.363281 C 1164.351562 437.492188 1178.128906 457.570312 1190.648438 479.007812 C 1214.871094 520.929688 1233.394531 565.855469 1245.683594 612.523438 C 1251.894531 636.113281 1256.5625 660.011719 1259.617188 683.550781 L 1260.746094 692.472656 L 1261.695312 701.652344 C 1262.230469 706.527344 1262.617188 711.578125 1262.976562 716.449219 L 1263.234375 719.757812 C 1263.566406 723.628906 1263.71875 727.476562 1263.875 731.550781 C 1263.953125 733.65625 1264.027344 735.730469 1264.15625 737.886719 C 1264.285156 739.960938 1264.285156 742.117188 1264.285156 744.398438 Z M 1233.421875 832.554688 C 1233.832031 829.914062 1234.804688 827.632812 1236.113281 825.632812 C 1235.445312 825.273438 1234.753906 824.835938 1234.113281 824.296875 C 1232.367188 822.835938 1231.035156 820.835938 1230.160156 818.324219 C 1227.363281 810.144531 1230.339844 800.554688 1237.523438 794.167969 C 1236.984375 794.324219 1236.449219 794.503906 1235.910156 794.628906 C 1235.703125 794.683594 1235.5 794.734375 1235.320312 794.785156 C 1235.214844 794.964844 1235.140625 795.117188 1235.035156 795.296875 C 1228.597656 807.144531 1218.4375 815.988281 1205.992188 821.066406 C 1201.964844 844.117188 1196.832031 864.582031 1190.316406 883.582031 L 1187.855469 891.121094 C 1187.1875 892.941406 1186.570312 894.554688 1185.929688 896.171875 C 1185.570312 897.09375 1185.210938 897.992188 1184.851562 898.914062 C 1184.082031 900.863281 1183.363281 902.789062 1182.644531 904.683594 C 1181.492188 907.789062 1180.285156 910.992188 1178.949219 914.144531 L 1170.765625 932.632812 C 1170.714844 932.738281 1170.664062 932.839844 1170.613281 932.941406 L 1161.554688 950.890625 C 1160.734375 952.582031 1159.785156 954.199219 1158.886719 955.738281 C 1158.425781 956.53125 1157.964844 957.328125 1157.527344 958.148438 C 1156.449219 960.046875 1155.421875 961.839844 1154.421875 963.636719 C 1152.78125 966.53125 1151.140625 969.429688 1149.472656 972.300781 C 1149.421875 972.378906 1149.367188 972.480469 1149.316406 972.558594 C 1147.699219 975.070312 1146.085938 977.585938 1144.492188 980.097656 C 1140.363281 986.585938 1136.105469 993.300781 1131.359375 999.6875 C 1126.867188 1006.355469 1121.863281 1012.660156 1117.042969 1018.738281 C 1115.21875 1021.019531 1113.398438 1023.328125 1111.601562 1025.636719 C 1109.242188 1028.457031 1106.984375 1031.019531 1104.726562 1033.585938 C 1103.390625 1035.097656 1102.082031 1036.585938 1100.75 1038.125 C 1100.058594 1038.917969 1099.414062 1039.636719 1098.773438 1040.378906 C 1097.59375 1041.738281 1096.4375 1043.074219 1095.234375 1044.378906 L 1083.816406 1056.097656 C 1083.226562 1056.6875 1082.660156 1057.277344 1082.097656 1057.867188 C 1080.738281 1059.277344 1079.351562 1060.738281 1077.941406 1062.023438 C 1074.273438 1065.5625 1070.242188 1069.175781 1066.0625 1072.714844 C 1059.542969 1078.226562 1052.71875 1083.714844 1045.511719 1089.511719 L 1039.582031 1094.253906 C 1034.554688 1098.304688 1030.066406 1102.074219 1025.832031 1105.765625 C 1023.546875 1107.765625 1021.265625 1109.765625 1018.980469 1111.894531 L 1014.953125 1115.714844 C 1013.671875 1116.996094 1012.257812 1118.5625 1010.824219 1120.304688 C 1005.074219 1127.355469 1001.277344 1135.589844 999.789062 1144.125 C 998.121094 1153.613281 999.609375 1163.664062 1003.921875 1171.742188 C 1008.128906 1179.871094 1015.671875 1186.898438 1024.113281 1190.589844 C 1031.476562 1193.820312 1039.558594 1195.203125 1048.128906 1194.71875 C 1055.566406 1194.332031 1063.136719 1192.4375 1070.089844 1189.179688 C 1077.171875 1185.871094 1083.300781 1181.359375 1088.28125 1175.742188 C 1092.359375 1171.152344 1092.589844 1164.28125 1088.820312 1159.410156 C 1086.714844 1156.71875 1083.714844 1154.972656 1080.300781 1154.539062 C 1076.914062 1154.101562 1073.554688 1155.023438 1070.832031 1157.101562 L 1069.34375 1158.253906 C 1066.34375 1160.5625 1062.75 1162.410156 1058.929688 1163.539062 C 1055.003906 1164.691406 1051.050781 1165.074219 1047.152344 1164.71875 C 1043.203125 1164.460938 1039.558594 1163.28125 1037.09375 1161.460938 C 1037.019531 1161.410156 1036.941406 1161.359375 1036.890625 1161.308594 C 1033.296875 1158.410156 1033.246094 1155.023438 1033.527344 1153.28125 C 1033.554688 1153.050781 1033.605469 1152.820312 1033.683594 1152.613281 C 1033.835938 1151.972656 1034.042969 1151 1034.632812 1149.664062 C 1035.710938 1147.332031 1037.199219 1145.359375 1039.097656 1143.613281 C 1039.738281 1143.023438 1040.300781 1142.535156 1040.96875 1142.050781 L 1043.203125 1140.332031 C 1045.101562 1138.84375 1047.125 1137.355469 1049.152344 1135.84375 L 1049.691406 1135.460938 C 1053.183594 1132.894531 1056.800781 1130.382812 1060.46875 1127.820312 L 1063.289062 1125.84375 C 1065.832031 1124.074219 1068.394531 1122.304688 1070.988281 1120.511719 C 1077.863281 1115.765625 1084.96875 1110.871094 1092.078125 1105.5625 C 1097.105469 1101.816406 1102.007812 1097.945312 1106.648438 1094.023438 C 1108.394531 1092.585938 1109.855469 1091.253906 1111.421875 1089.816406 C 1112.113281 1089.175781 1112.808594 1088.5625 1113.5 1087.921875 L 1127.046875 1075.511719 C 1128.332031 1074.277344 1129.664062 1072.894531 1131.023438 1071.484375 C 1131.792969 1070.6875 1132.539062 1069.917969 1133.308594 1069.125 C 1134.691406 1067.6875 1136.15625 1066.203125 1137.617188 1064.714844 C 1140.441406 1061.816406 1143.289062 1058.945312 1146.035156 1055.972656 L 1150.011719 1051.40625 C 1156.550781 1043.917969 1163.351562 1036.175781 1169.304688 1028.148438 C 1209.226562 976.890625 1237.449219 917.558594 1252.199219 855.121094 C 1249.761719 854.683594 1247.273438 853.941406 1244.914062 852.761719 C 1236.933594 848.835938 1232.164062 840.503906 1233.421875 832.554688 Z M 1233.421875 832.554688 " fill-opacity="1" fill-rule="nonzero"/><path fill="#f47a80" d="M 707.792969 702.527344 C 711.511719 706.191406 713.539062 710.9375 713.359375 715.550781 C 713.152344 720.679688 710.230469 725.191406 707.816406 728.066406 C 705.585938 730.730469 702.8125 733.117188 699.964844 735.425781 C 690.703125 730.476562 680.621094 727.296875 670.28125 725.835938 C 671.949219 713.140625 683.210938 697.730469 694.835938 697.167969 C 699.351562 696.882812 704.097656 698.882812 707.792969 702.527344 Z M 1363.449219 743.808594 C 1359.34375 736.039062 1354.851562 729.320312 1350.132812 723.886719 C 1347.183594 720.476562 1342.308594 716.191406 1335.917969 715.011719 C 1334.710938 714.78125 1333.480469 714.679688 1332.300781 714.679688 C 1330.890625 714.679688 1329.53125 714.832031 1328.195312 715.117188 C 1326.269531 715.550781 1324.269531 716.449219 1322.242188 717.757812 C 1318.164062 720.449219 1315.445312 724.679688 1314.570312 729.679688 C 1313.726562 734.730469 1314.957031 739.886719 1317.984375 743.808594 L 1320.859375 747.527344 C 1322.628906 749.835938 1322.628906 753.039062 1320.859375 755.347656 L 1317.984375 759.066406 C 1314.957031 762.988281 1313.726562 768.144531 1314.570312 773.195312 C 1315.417969 778.21875 1318.136719 782.449219 1322.242188 785.117188 C 1324.269531 786.449219 1326.269531 787.324219 1328.195312 787.757812 C 1330.632812 788.296875 1333.328125 788.347656 1335.917969 787.859375 C 1342.28125 786.707031 1347.15625 782.398438 1350.132812 778.988281 C 1354.851562 773.554688 1359.34375 766.859375 1363.449219 759.089844 C 1364.960938 756.21875 1366.117188 753.757812 1367.039062 751.425781 C 1366.117188 749.140625 1364.960938 746.679688 1363.449219 743.808594 Z M 1363.449219 743.808594 " fill-opacity="1" fill-rule="nonzero"/><path fill="#ffffff" d="M 545.460938 584.113281 C 531.121094 599.625 525.835938 624.214844 531.554688 643.882812 C 533.429688 650.292969 536.457031 656.320312 540.304688 661.753906 C 534.378906 661.292969 528.453125 661.011719 522.523438 661.011719 C 503.101562 661.011719 483.679688 663.523438 464.925781 668.550781 L 463.820312 668.859375 C 457.460938 670.578125 451.457031 672.191406 446.582031 670.5 C 444.09375 669.628906 442.605469 668.113281 441.78125 665.628906 C 438.089844 654.5 448.375 630.984375 455.175781 620.933594 C 465.335938 605.90625 480.808594 594.0625 498.714844 587.601562 C 514.160156 582.035156 530.222656 581.035156 545.460938 584.113281 Z M 847.414062 745.066406 L 893.496094 745.066406 L 870.582031 718.039062 L 810.984375 718.039062 L 833.894531 745.066406 Z M 833.867188 757.886719 L 831.070312 761.195312 C 832.40625 762.527344 833.613281 764.117188 834.613281 765.988281 C 837.460938 771.347656 837.125 778.167969 833.765625 784.039062 C 834.714844 784.269531 835.613281 784.578125 836.511719 784.914062 L 870.53125 784.914062 L 893.441406 757.886719 Z M 833.867188 757.886719 " fill-opacity="1" fill-rule="nonzero"/><path fill="#ee6567" d="M 492.867188 1041.40625 C 507.746094 1051.507812 524.679688 1059.175781 544.203125 1064.714844 L 544.203125 1142.050781 C 544.203125 1152.894531 539.484375 1162.769531 530.914062 1169.871094 C 516.085938 1182.152344 490.8125 1185.691406 446.453125 1181.742188 C 434.777344 1180.691406 422.207031 1179.152344 409.121094 1177.128906 C 407.25 1176.84375 405.375 1177.382812 403.9375 1178.613281 L 370.148438 1207.847656 C 365.480469 1211.871094 359.527344 1214.101562 353.371094 1214.101562 C 345.902344 1214.101562 338.824219 1210.871094 333.949219 1205.230469 C 329.457031 1200.050781 327.25 1193.433594 327.765625 1186.589844 C 328.253906 1179.742188 331.382812 1173.511719 336.566406 1169.050781 L 381.796875 1129.921875 C 386.519531 1125.84375 392.417969 1123.664062 398.527344 1123.664062 C 400.140625 1123.664062 401.757812 1123.816406 403.375 1124.125 C 433.289062 1129.765625 467.621094 1132.894531 486.886719 1131.691406 C 490.273438 1131.484375 492.917969 1128.691406 492.917969 1125.28125 L 492.917969 1041.40625 Z M 847.414062 1162.460938 L 831.328125 1162.460938 C 829.300781 1162.460938 827.402344 1161.511719 826.195312 1159.894531 C 824.992188 1158.28125 824.605469 1156.179688 825.171875 1154.253906 C 837.179688 1113.535156 843.542969 1083.714844 843.542969 1067.996094 C 843.542969 1033.867188 803.441406 1014.660156 767.878906 1001.738281 C 760.695312 1008.40625 753.921875 1015.789062 747.355469 1022.96875 C 741.324219 1029.558594 735.167969 1036.277344 728.546875 1042.636719 C 756.566406 1051.226562 779.785156 1061.125 789.328125 1068.6875 C 789.996094 1069.203125 790.535156 1069.84375 790.945312 1070.5625 C 793.074219 1071.613281 794.511719 1073.792969 794.511719 1076.304688 C 794.511719 1078.996094 792.84375 1081.304688 790.484375 1082.253906 C 786.070312 1106.253906 773.78125 1148.613281 763.261719 1179.949219 C 760.644531 1187.742188 761.953125 1196.410156 766.75 1203.101562 C 771.574219 1209.792969 779.347656 1213.769531 787.582031 1213.769531 L 847.390625 1213.769531 C 861.550781 1213.769531 873.046875 1202.257812 873.046875 1188.128906 C 873.070312 1173.972656 861.550781 1162.460938 847.414062 1162.460938 Z M 843.464844 705.21875 L 873.507812 705.21875 C 875.382812 705.21875 877.175781 706.039062 878.410156 707.472656 L 910.300781 745.039062 L 1049.023438 745.039062 C 1068.421875 712.78125 1081.558594 678.910156 1087.894531 644.292969 C 1094.824219 606.472656 1094.207031 567.417969 1086.074219 531.417969 C 1079.480469 502.160156 1066.394531 472.46875 1047.203125 443.210938 C 1034.351562 423.621094 1018.851562 406.003906 1001.277344 390.722656 C 950.582031 478.699219 903.808594 569.292969 861.9375 660.753906 C 854.882812 676.113281 848.441406 690.730469 843.464844 705.21875 Z M 910.300781 757.886719 L 878.410156 795.449219 C 877.203125 796.886719 875.40625 797.707031 873.507812 797.707031 L 847.183594 797.707031 C 847.722656 800.886719 847.464844 804.273438 846.285156 807.578125 C 845.542969 809.683594 844.4375 811.683594 843.027344 813.65625 C 851.085938 838.9375 863.347656 863.683594 875.867188 887.582031 C 878.921875 893.429688 882.101562 899.25 885.308594 905.09375 C 914.585938 884.351562 941.832031 863.066406 966.871094 841.273438 C 996.609375 815.398438 1021.417969 787.375 1040.945312 757.859375 L 910.300781 757.859375 Z M 864.503906 893.53125 C 867.8125 899.863281 871.25 906.171875 874.738281 912.480469 C 831.019531 942.738281 782.886719 971.761719 730.753906 999.277344 C 693.039062 1019.175781 661.097656 1033.894531 630.230469 1045.609375 C 619.761719 1049.585938 608.21875 1049.585938 597.722656 1045.609375 C 566.859375 1033.894531 534.917969 1019.175781 497.203125 999.277344 C 405.300781 950.789062 325.867188 897.609375 261.082031 841.246094 C 194.964844 783.707031 153.121094 715.601562 140.058594 644.269531 C 133.132812 606.445312 133.773438 567.394531 141.882812 531.394531 C 148.476562 502.136719 161.5625 472.441406 180.75 443.1875 C 220.390625 382.75 285.226562 340.976562 358.679688 328.566406 C 374.023438 325.976562 389.46875 324.695312 404.785156 324.695312 C 463.949219 324.695312 521.703125 343.746094 568.195312 379.441406 L 568.21875 379.414062 C 570.015625 380.824219 577.402344 386.492188 610.089844 411.59375 C 612.398438 413.363281 615.605469 413.363281 617.917969 411.59375 C 650.628906 386.492188 657.992188 380.824219 659.789062 379.414062 L 659.8125 379.441406 C 718.335938 334.492188 794.714844 315.953125 869.324219 328.566406 C 914.53125 336.207031 956.480469 355.003906 991.296875 382.390625 C 939.984375 471.316406 892.648438 562.90625 850.3125 655.394531 C 842.464844 672.550781 835.28125 688.859375 829.992188 705.191406 L 797.179688 705.191406 C 794.691406 705.191406 792.40625 706.652344 791.355469 708.910156 C 790.304688 711.167969 790.664062 713.832031 792.277344 715.757812 L 821.140625 749.757812 C 821.066406 750.9375 821.039062 752.117188 820.988281 753.296875 L 819.242188 755.347656 C 805.980469 753.015625 788.890625 758.910156 778.988281 762.347656 C 777.808594 762.757812 776.757812 763.117188 775.832031 763.425781 C 757.488281 769.527344 738.785156 777.835938 718.695312 788.757812 C 666.40625 798.9375 592.363281 806.066406 547.386719 801.296875 C 496.378906 795.886719 450.761719 789.734375 408.992188 768.964844 C 405.835938 767.398438 401.964844 768.679688 400.398438 771.859375 C 398.832031 775.039062 400.117188 778.886719 403.296875 780.449219 C 446.992188 802.144531 493.789062 808.503906 546.050781 814.042969 C 591.617188 818.863281 665.894531 811.886719 719.105469 801.734375 C 719.15625 801.734375 719.207031 801.757812 719.261719 801.757812 C 720.515625 801.886719 721.824219 801.65625 723.003906 801.015625 C 743.121094 789.964844 761.746094 781.628906 779.914062 775.578125 C 780.886719 775.246094 781.992188 774.859375 783.222656 774.449219 C 792.816406 771.144531 818.292969 762.320312 823.402344 771.9375 C 824.195312 773.449219 823.835938 775.964844 822.476562 778.066406 C 820.707031 780.835938 817.523438 783.066406 814.652344 784.859375 C 811.878906 786.605469 809.289062 788.015625 806.828125 789.144531 C 805.929688 789.324219 805.03125 789.503906 804.105469 789.683594 C 800.234375 790.425781 796.230469 791.167969 792.253906 792.785156 C 789.355469 793.9375 787.710938 797.015625 788.355469 800.039062 C 788.996094 803.09375 791.742188 805.21875 794.84375 805.117188 C 799.898438 804.9375 805.132812 803.734375 810.597656 801.453125 C 813.164062 800.886719 815.753906 800.21875 818.320312 799.195312 C 821.707031 797.835938 825.222656 796.425781 828.402344 796.296875 C 830.867188 796.21875 833.148438 796.988281 834.074219 798.296875 C 834.867188 799.425781 834.972656 801.425781 834.304688 803.246094 C 833.5625 805.296875 831.996094 807.398438 829.480469 809.683594 C 821.859375 816.632812 810.726562 821.066406 795.484375 823.222656 C 795.179688 823.246094 794.871094 823.296875 794.5625 823.347656 C 791.074219 823.886719 788.660156 827.117188 789.175781 830.605469 C 789.660156 834.09375 792.894531 836.527344 796.382812 836.042969 C 796.667969 836.015625 796.921875 835.964844 797.207031 835.9375 C 802.925781 835.222656 805.363281 836.9375 806.828125 838.554688 C 808.160156 840.015625 807.957031 843.246094 806.363281 845.453125 C 804.054688 848.65625 799.667969 850.351562 796.382812 851.171875 C 793.84375 851.8125 791.148438 852.222656 788.300781 852.65625 C 785.8125 853.042969 783.222656 853.425781 780.605469 854.015625 C 775.601562 855.144531 770.882812 856.863281 766.3125 858.53125 C 760.4375 860.683594 754.921875 862.710938 749.304688 863.273438 C 738.886719 864.324219 728.394531 860.632812 715.875 854.734375 C 715.207031 854.425781 714.488281 854.246094 713.796875 854.171875 C 712 853.992188 710.230469 854.53125 708.867188 855.734375 C 666.304688 862.761719 619.25 867.015625 580.917969 867.015625 C 565.960938 867.015625 552.390625 866.375 540.585938 865.121094 C 485.425781 859.273438 431.648438 851.914062 380.386719 826.453125 C 377.207031 824.863281 373.355469 826.167969 371.792969 829.347656 C 370.226562 832.527344 371.507812 836.375 374.691406 837.9375 C 427.851562 864.351562 482.859375 871.914062 539.226562 877.890625 C 551.492188 879.195312 565.5 879.835938 580.917969 879.835938 C 620.710938 879.835938 669.792969 875.324219 713.796875 867.914062 C 723.902344 872.480469 734.628906 876.300781 745.761719 876.300781 C 747.378906 876.300781 748.96875 876.222656 750.613281 876.042969 C 757.820312 875.300781 764.363281 872.914062 770.703125 870.582031 C 775.0625 868.992188 779.195312 867.480469 783.375 866.554688 C 785.558594 866.066406 787.816406 865.734375 790.199219 865.375 C 793.226562 864.914062 796.359375 864.453125 799.515625 863.632812 C 807.289062 861.65625 813.0625 858.066406 816.730469 852.964844 C 821.554688 846.273438 821.679688 837.246094 817.292969 831.222656 C 823.144531 829.144531 828.25 826.527344 832.738281 823.375 C 841 847.453125 852.625 870.890625 864.503906 893.53125 Z M 767.621094 606.316406 C 746.558594 606.703125 725.777344 613.984375 709.125 626.882812 C 706.328125 629.0625 705.816406 633.089844 707.996094 635.882812 C 709.253906 637.523438 711.152344 638.371094 713.078125 638.371094 C 714.4375 638.371094 715.820312 637.933594 717.003906 637.035156 C 731.5 625.832031 749.558594 619.472656 767.878906 619.140625 C 786.199219 618.832031 804.464844 624.523438 819.347656 635.214844 C 822.21875 637.292969 826.222656 636.625 828.300781 633.753906 C 830.378906 630.882812 829.710938 626.882812 826.839844 624.804688 C 809.726562 612.523438 788.609375 605.960938 767.621094 606.316406 Z M 704.277344 559.597656 C 708.203125 560.726562 712.253906 561.265625 716.335938 561.265625 C 726.289062 561.265625 736.269531 557.984375 744.121094 551.828125 C 746.917969 549.648438 747.40625 545.625 745.199219 542.828125 C 743.019531 540.035156 738.988281 539.546875 736.195312 541.753906 C 728.316406 547.933594 717.414062 550.058594 707.792969 547.292969 C 704.378906 546.316406 700.839844 548.292969 699.863281 551.675781 C 698.886719 555.058594 700.863281 558.625 704.277344 559.597656 Z M 657.453125 724.886719 C 640.621094 724.832031 623.765625 729.21875 609.296875 738.117188 C 606.269531 739.960938 605.34375 743.910156 607.191406 746.9375 C 608.398438 748.910156 610.5 749.988281 612.65625 749.988281 C 613.8125 749.988281 614.964844 749.679688 616.015625 749.039062 C 639.03125 734.886719 669.101562 733.859375 693.066406 746.296875 C 693.269531 746.910156 693.578125 747.527344 693.988281 748.066406 C 695.246094 749.730469 697.167969 750.605469 699.09375 750.605469 C 700.453125 750.605469 701.8125 750.167969 702.96875 749.296875 C 707.996094 745.476562 713.230469 741.5 717.59375 736.320312 C 722.929688 729.988281 725.878906 722.988281 726.160156 716.039062 C 726.46875 707.859375 723.058594 699.601562 716.796875 693.421875 C 710.5625 687.269531 702.351562 683.960938 694.195312 684.347656 C 675.003906 685.269531 659.480469 706.269531 657.453125 724.886719 Z M 532.195312 525.675781 C 533.660156 528.90625 537.457031 530.34375 540.6875 528.878906 C 547.386719 525.855469 555.621094 525.984375 562.214844 529.265625 C 563.140625 529.726562 564.113281 529.933594 565.0625 529.933594 C 567.421875 529.933594 569.707031 528.625 570.808594 526.367188 C 572.375 523.1875 571.09375 519.339844 567.910156 517.777344 C 557.800781 512.777344 545.667969 512.574219 535.402344 517.214844 C 532.144531 518.648438 530.734375 522.445312 532.195312 525.675781 Z M 429.597656 669.679688 C 431.675781 675.960938 436.085938 680.449219 442.347656 682.628906 C 450.96875 685.628906 459.5625 683.292969 467.15625 681.242188 L 468.234375 680.960938 C 509.621094 669.808594 554.59375 671.808594 594.851562 686.601562 L 595.773438 686.9375 C 600.496094 688.679688 605.753906 690.628906 611.5 690.628906 C 612.324219 690.628906 613.144531 690.578125 613.964844 690.5 C 620.40625 689.859375 625.40625 686.320312 628.074219 680.578125 C 636.441406 662.398438 619.429688 624.242188 613.09375 615.140625 C 585.691406 575.726562 537.96875 559.828125 494.351562 575.574219 C 473.90625 582.957031 456.226562 596.523438 444.554688 613.78125 C 439.808594 620.78125 423.363281 650.832031 429.597656 669.679688 Z M 1284.527344 789.503906 L 1273.726562 793.808594 C 1270.90625 794.9375 1267.644531 796.246094 1264.105469 797.066406 C 1263.335938 797.578125 1262.4375 797.9375 1261.460938 798.039062 C 1261.460938 798.039062 1261.4375 798.039062 1261.4375 798.039062 C 1254.636719 798.914062 1249.6875 800.683594 1246.351562 803.453125 C 1243.347656 805.9375 1241.015625 810.398438 1242.296875 814.144531 C 1242.324219 814.222656 1242.347656 814.296875 1242.375 814.375 C 1242.554688 814.425781 1242.863281 814.476562 1243.296875 814.578125 C 1245.890625 815.042969 1249.6875 814.476562 1253.023438 813.964844 C 1253.917969 813.835938 1254.792969 813.707031 1255.636719 813.578125 C 1255.921875 813.554688 1256.203125 813.527344 1256.484375 813.527344 C 1257.359375 813.527344 1258.203125 813.734375 1258.972656 814.066406 C 1264.695312 813.453125 1270.390625 812.527344 1276.035156 811.347656 C 1276.136719 811.324219 1276.214844 811.296875 1276.316406 811.296875 C 1277.164062 811.117188 1278.035156 810.964844 1278.910156 810.757812 C 1280.21875 810.476562 1281.5 810.578125 1282.65625 811.042969 C 1286.8125 810.015625 1290.558594 806.65625 1291.480469 802.554688 C 1292.6875 797.425781 1289.402344 791.503906 1284.527344 789.503906 Z M 1276.753906 824.324219 C 1269.597656 825.757812 1262.359375 826.734375 1255.101562 827.296875 C 1249.480469 829.554688 1246.480469 831.9375 1246.070312 834.527344 C 1245.710938 836.886719 1247.738281 839.863281 1250.6875 841.296875 C 1253.792969 842.835938 1257.84375 843.246094 1263.773438 842.683594 C 1268.648438 842.222656 1272.035156 841.375 1274.726562 839.992188 C 1278.191406 838.195312 1280.527344 833.992188 1280.269531 829.964844 C 1280.113281 827.402344 1278.882812 825.527344 1276.753906 824.324219 Z M 1268.980469 781.914062 L 1283.734375 776.015625 C 1284.707031 775.628906 1285.734375 775.5 1286.707031 775.605469 C 1288.839844 774.398438 1290.582031 772.605469 1291.480469 770.5 C 1292.710938 767.628906 1292.328125 764.015625 1290.53125 761.730469 C 1288.609375 759.269531 1284.863281 757.757812 1280.527344 757.730469 C 1280.449219 757.730469 1280.398438 757.730469 1280.320312 757.730469 C 1277.882812 757.730469 1275.367188 758.140625 1272.828125 758.730469 C 1274.113281 763.347656 1273.597656 768.167969 1271.316406 772.605469 C 1268.339844 778.375 1263.414062 782.269531 1259.023438 784.988281 C 1262.257812 784.578125 1265.671875 783.246094 1268.980469 781.914062 Z M 1259.949219 766.707031 C 1260.925781 764.835938 1261 763.015625 1260.179688 761.195312 C 1259.023438 758.605469 1256.175781 756.375 1252.917969 755.5 C 1247.324219 754.039062 1240.808594 755.550781 1235.164062 757.246094 C 1228.3125 759.296875 1221.414062 761.910156 1214.714844 764.425781 C 1204.429688 768.320312 1193.804688 772.347656 1182.621094 774.65625 C 1182.390625 774.707031 1182.15625 774.707031 1181.925781 774.734375 C 1180.773438 774.835938 1179.667969 774.65625 1178.667969 774.195312 C 1136.078125 776.628906 1096.335938 771.554688 1054.207031 761.039062 C 1044.433594 776.21875 1033.324219 791.015625 1020.90625 805.375 C 1061.828125 816.9375 1107.316406 826.015625 1157.554688 826.015625 C 1166.300781 826.015625 1175 825.734375 1183.699219 825.195312 C 1181.566406 824.296875 1179.976562 822.296875 1179.773438 819.835938 C 1179.464844 816.324219 1182.054688 813.246094 1185.542969 812.914062 C 1185.570312 812.914062 1185.597656 812.914062 1185.597656 812.914062 C 1202.425781 811.476562 1216.332031 802.863281 1223.722656 789.296875 C 1224.441406 787.964844 1225.492188 786.039062 1227.46875 784.554688 C 1229.316406 783.144531 1231.289062 782.628906 1232.597656 782.296875 C 1238.5 780.785156 1244.117188 778.578125 1249.402344 775.757812 C 1254.921875 772.808594 1258.28125 769.9375 1259.949219 766.707031 Z M 1259.949219 766.707031 " fill-opacity="1" fill-rule="nonzero"/></svg>